HIERARCHY
ROOT Hips
{
	OFFSET 0.000000 0.000000 0.000000 
	CHANNELS 6 Xposition Yposition Zposition Zrotation Yrotation Xrotation
	JOINT LeftUpLeg
	{
		OFFSET 1.363060 -1.794630 0.839290 
		CHANNELS 3 Zrotation Yrotation Xrotation
		JOINT LeftLeg
		{
			OFFSET 2.448110 -6.726130 0.000000 
			CHANNELS 3 Zrotation Yrotation Xrotation
			JOINT LeftFoot
			{
				OFFSET 2.562200 -7.039590 0.000000 
				CHANNELS 3 Zrotation Yrotation Xrotation
				JOINT LeftToeBase
				{
					OFFSET 0.157640 -0.433110 2.322550 
					CHANNELS 3 Zrotation Yrotation Xrotation
					End Site
					{
						OFFSET 0.000000 0.000000 0.000000 
					}
				}
			}
		}
	}
	JOINT RightUpLeg
	{
		OFFSET -1.305520 -1.794630 0.839290 
		CHANNELS 3 Zrotation Yrotation Xrotation
		JOINT RightLeg
		{
			OFFSET -2.542530 -6.985550 0.000000 
			CHANNELS 3 Zrotation Yrotation Xrotation
			JOINT RightFoot
			{
				OFFSET -2.568260 -7.056230 0.000000 
				CHANNELS 3 Zrotation Yrotation Xrotation
				JOINT RightToeBase
				{
					OFFSET -0.164730 -0.452590 2.363150 
					CHANNELS 3 Zrotation Yrotation Xrotation
					End Site
					{
						OFFSET 0.000000 0.000000 0.000000 
					}
				}
			}
		}
	}
	JOINT Spine
	{
		OFFSET 0.028270 2.035590 -0.193380 
		CHANNELS 3 Zrotation Yrotation Xrotation
		JOINT Spine1
		{
			OFFSET 0.056720 2.048850 -0.042750 
			CHANNELS 3 Zrotation Yrotation Xrotation
			JOINT Neck1
			{
				OFFSET -0.054170 1.746240 0.172020 
				CHANNELS 3 Zrotation Yrotation Xrotation
				JOINT Head
				{
					OFFSET 0.104070 1.761360 -0.123970 
					CHANNELS 3 Zrotation Yrotation Xrotation
					End Site
					{
						OFFSET 0.000000 0.000000 0.000000 
					}
				}
			}
			JOINT LeftArm
			{
				OFFSET 3.362410 1.200890 -0.311210 
				CHANNELS 3 Zrotation Yrotation Xrotation
				JOINT LeftForeArm
				{
					OFFSET 4.983000 -0.000000 -0.000000 
					CHANNELS 3 Zrotation Yrotation Xrotation
					JOINT LeftHand
					{
						OFFSET 3.483560 -0.000000 -0.000000 
						CHANNELS 3 Zrotation Yrotation Xrotation
						JOINT LeftHandIndex1
						{
							OFFSET 0.715260 -0.000000 -0.000000 
							CHANNELS 3 Zrotation Yrotation Xrotation
							End Site
							{
								OFFSET 0.000000 0.000000 0.000000 
							}
						}
					}
				}
			}
			JOINT RightArm
			{
				OFFSET -3.136600 1.374050 -0.404650 
				CHANNELS 3 Zrotation Yrotation Xrotation
				JOINT RightForeArm
				{
					OFFSET -5.241900 -0.000000 -0.000000 
					CHANNELS 3 Zrotation Yrotation Xrotation
					JOINT RightHand
					{
						OFFSET -3.444170 -0.000000 -0.000000 
						CHANNELS 3 Zrotation Yrotation Xrotation
						JOINT RightHandIndex1
						{
							OFFSET -0.622530 -0.000000 -0.000000 
							CHANNELS 3 Zrotation Yrotation Xrotation
							End Site
							{
								OFFSET 0.000000 0.000000 0.000000 
							}
						}
					}
				}
			}
		}
	}
}
MOTION
Frames: 10
Frame Time: 0.041667
0.964352 17.870672 -17.306225 0.016188 -3.320538 7.388154 -21.938014 -7.827725 -8.816856 0.448223 4.918263 16.360266 -1.106776 7.062947 -4.068083 0.000500 0.140100 0.384900 25.431659 11.505611 -8.514606 -1.934691 -6.196289 20.239423 0.741258 -6.559642 -6.454500 -0.097900 -2.017800 5.554900 0.926267 0.356341 -0.814872 2.771637 0.621804 -4.300517 5.728872 -4.498643 11.218628 3.571200 -2.299900 8.265100 -84.779968 0.895090 22.588568 12.457674 -22.242104 -2.711960 -0.742398 -2.618046 7.223311 -7.125000 0.000000 0.000000 82.267901 0.021467 20.895808 -17.050452 25.018798 -4.677074 0.814324 -0.442522 4.399309 7.125000 0.000000 0.000000 
0.966453 17.872473 -17.304624 -0.007249 -3.362363 7.379696 -21.929924 -7.776477 -8.763313 0.441032 4.893451 16.293806 -1.115907 7.103915 -4.037924 0.001300 0.228700 0.628300 25.447686 11.536713 -8.471240 -1.933702 -6.192917 20.232165 0.739283 -6.547386 -6.464766 -0.103400 -2.073500 5.708900 0.928756 0.375671 -0.810251 2.759501 0.631249 -4.337250 5.700366 -4.494510 11.257460 3.558100 -2.298100 8.308600 -84.776336 0.911095 22.922994 12.522826 -22.344685 -2.728827 -0.776563 -2.649153 6.319902 -7.125000 0.000000 0.000000 82.242644 0.065153 20.998564 -17.057282 25.027075 -4.680133 0.817952 -0.451347 4.324957 7.125000 0.000000 0.000000 
0.968053 17.873473 -17.305124 0.036602 -3.426319 7.344551 -21.991237 -7.736568 -8.705194 0.435841 4.873280 16.241766 -1.124726 7.139094 -3.972913 0.001300 0.233800 0.642400 25.397794 11.637411 -8.415534 -1.936606 -6.198740 20.251881 0.744153 -6.590910 -6.521417 -0.107900 -2.118100 5.832100 0.945134 0.360746 -0.849710 2.850097 0.631498 -4.515019 5.639913 -4.435440 11.084143 3.550900 -2.279000 8.209900 -84.837091 1.079511 22.958234 12.734238 -22.674320 -2.809017 -0.694401 -2.745032 6.886678 -7.125000 0.000000 0.000000 82.169396 -0.030785 21.162473 -17.056152 25.020577 -4.677434 0.828025 -0.445570 4.358996 7.125000 0.000000 0.000000 
0.970454 17.874073 -17.300523 0.042691 -3.405215 7.418254 -21.995559 -7.738572 -8.755021 0.426961 4.848852 16.166708 -1.129039 7.152189 -3.886344 0.000700 0.164800 0.452700 25.381136 11.732992 -8.512336 -1.941410 -6.217114 20.295777 0.755922 -6.683102 -6.580264 -0.089400 -1.928100 5.307100 0.944155 0.352556 -0.927184 2.851021 0.634927 -4.677658 5.645761 -4.447782 11.008451 3.555000 -2.288100 8.142200 -84.769666 1.316818 23.019295 12.510882 -22.348892 -2.755389 -0.867127 -2.533381 5.666512 -7.125000 0.000000 0.000000 82.166111 -0.233921 21.186729 -17.069119 25.034271 -4.683379 0.834809 -0.420747 4.333391 7.125000 0.000000 0.000000 
0.973755 17.872973 -17.291721 0.147353 -3.410182 7.437096 -22.138622 -7.796750 -8.688267 0.421929 4.832710 16.126059 -1.141770 7.220216 -3.920878 0.000100 0.049200 0.135100 25.243879 11.689059 -8.566826 -1.949979 -6.237551 20.353205 0.745895 -6.615883 -6.542467 -0.092000 -1.956700 5.386000 0.918351 0.321750 -0.973039 2.852671 0.625030 -4.762019 5.641734 -4.435532 10.953435 3.552200 -2.283700 8.084300 -84.720221 1.459938 23.002675 12.469169 -22.292014 -2.744397 -0.917511 -2.483784 5.183909 -7.125000 0.000000 0.000000 82.192045 -0.369426 21.295974 -17.086536 25.054531 -4.695261 0.830925 -0.387179 4.262421 7.125000 0.000000 0.000000 
0.974555 17.872373 -17.286219 0.214984 -3.470986 7.362972 -22.233225 -7.744608 -8.556020 0.420593 4.820727 16.105212 -1.146088 7.239673 -3.926105 0.000400 -0.126100 -0.346500 25.162077 11.584990 -8.508030 -1.958116 -6.252153 20.407329 0.713455 -6.413813 -6.569416 -0.108000 -2.118500 5.833400 0.911902 0.320165 -0.941554 2.894203 0.622985 -4.736352 5.720255 -4.452365 10.867659 3.593600 -2.287700 8.057200 -84.711209 1.360013 23.079186 12.518739 -22.366065 -2.757124 -0.887395 -2.531182 5.357072 -7.125000 0.000000 0.000000 82.187460 -0.278953 21.329606 -17.068497 25.030165 -4.689305 0.815818 -0.378829 4.268528 7.125000 0.000000 0.000000 
0.975955 17.870472 -17.283819 0.170709 -3.545863 7.317136 -22.197749 -7.686586 -8.494129 0.419218 4.813678 16.090043 -1.152679 7.274349 -3.958386 0.001200 -0.221200 -0.607800 25.215275 11.543050 -8.494438 -1.961858 -6.262654 20.444687 0.696495 -6.339185 -6.735426 -0.093100 -1.967400 5.415600 0.943450 0.323286 -0.924607 2.954588 0.624094 -4.744447 5.744016 -4.423139 10.851173 3.622800 -2.276900 8.062300 -84.758409 1.249021 22.987548 12.537547 -22.389891 -2.767127 -0.854684 -2.542198 5.794477 -7.125000 0.000000 0.000000 82.118236 -0.176899 21.368540 -17.024085 24.974018 -4.668938 0.800552 -0.394629 4.256829 7.125000 0.000000 0.000000 
0.977756 17.870372 -17.280518 0.161907 -3.626200 7.343006 -22.208002 -7.634657 -8.519953 0.418094 4.812243 16.083970 -1.162700 7.331030 -3.998624 0.000700 -0.169800 -0.466600 25.211739 11.628433 -8.538531 -1.965210 -6.275908 20.475737 0.702789 -6.388150 -6.756773 -0.081100 -1.837400 5.056500 0.928098 0.387989 -0.898473 2.901797 0.652031 -4.659009 5.670009 -4.421133 10.851765 3.581300 -2.276100 8.070700 -84.692769 1.059483 22.991442 12.412625 -22.189900 -2.720673 -0.870246 -2.491126 5.577888 -7.125000 0.000000 0.000000 82.167905 -0.119148 21.335617 -17.047612 25.006794 -4.685116 0.787909 -0.377287 4.244718 7.125000 0.000000 0.000000 
0.980556 17.871272 -17.272516 0.110514 -3.650173 7.401919 -22.165568 -7.593218 -8.569878 0.418010 4.813015 16.084053 -1.154572 7.288914 -3.994467 0.000000 0.018100 0.049700 25.256503 11.725234 -8.554407 -1.965393 -6.279898 20.481984 0.714417 -6.454536 -6.716596 -0.073600 -1.750200 4.815800 0.909620 0.446264 -0.902484 2.797006 0.677242 -4.617664 5.621220 -4.401897 10.886707 3.554900 -2.268100 8.074800 -84.577611 1.002540 23.095951 12.243188 -21.925465 -2.661753 -0.934643 -2.390993 4.981361 -7.125000 0.000000 0.000000 82.249985 -0.254391 21.346379 -17.167314 25.175432 -4.754399 0.782608 -0.357409 4.183036 7.125000 0.000000 0.000000 
0.982357 17.870072 -17.263814 0.151222 -3.677013 7.403367 -22.219581 -7.580115 -8.517150 0.414563 4.799706 16.052383 -1.155654 7.294228 -4.012948 0.000700 0.170200 0.467600 25.201724 11.698925 -8.530633 -1.965754 -6.277410 20.478359 0.704270 -6.383653 -6.689550 -0.084600 -1.876500 5.164400 0.919601 0.405758 -0.926723 2.850376 0.660624 -4.659184 5.561571 -4.339675 10.815604 3.543400 -2.246500 8.016200 -84.630206 1.033418 22.933441 12.260014 -21.952132 -2.671774 -0.922976 -2.390996 5.040652 -7.125000 0.000000 0.000000 82.232052 -0.429852 21.528780 -17.232478 25.270824 -4.793987 0.781463 -0.359779 4.093248 7.125000 0.000000 0.000000 
